<svg xmlns="http://www.w3.org/2000/svg" viewBox="0 0 248.19 38.27" fill="currentColor" stroke="currentColor">
    <g id="Layer_2" data-name="Layer 2">
        <g id="Layer_1-2" data-name="Layer 1">
            <path fill-rule="evenodd" clip-rule="evenodd" d="M27,21.43C27,31.58,20.2,37.75,9,37.75H0V5.1H9C20.2,5.1,27,11.27,27,21.43Zm-5.82,0c0-6.69-4.64-10.72-12.24-10.72H5.82V32.14H9C16.58,32.14,21.22,28.11,21.22,21.43Z" />
            <path fill-rule="evenodd" clip-rule="evenodd" d="M31.83,28.36V15.3h5.31V28.36a4.47,4.47,0,0,0,4.69,4.8,4.48,4.48,0,0,0,4.7-4.8V15.3h5.3V28.36C52,41.57,31.67,41.56,31.83,28.36Z" />
            <path fill-rule="evenodd" clip-rule="evenodd" d="M104.58,24.69V37.75h-5.3V24.69c0-2.8-1.79-4.79-4.29-4.79-3.16,0-5.36,2-5.36,4.79V37.75h-5.3V0h5.3V17.8a7.28,7.28,0,0,1,5.92-3C100.86,14.79,104.58,18.88,104.58,24.69Z" />
            <path fill-rule="evenodd" clip-rule="evenodd" d="M78.21,24.69V37.75H72.9V24.69c0-2.8-1.79-4.79-4.29-4.79-3.16,0-5.35,2-5.35,4.79V37.75H58V15.3h4.59l.11,3.42a7.4,7.4,0,0,1,6.53-3.93C74.48,14.79,78.21,18.88,78.21,24.69Z" />
            <path fill-rule="evenodd" clip-rule="evenodd" d="M130.8,33l-.41,4.79h-.66c-2.75,0-4.39-.41-5.41-1.58a11.25,11.25,0,0,1-6.42,2.09c-4.6,0-8.73-2.14-8.73-7.4,0-6.93,7.09-7.29,13.93-7.49v-.16c0-2.34-1.89-3.72-4.39-3.62a13.93,13.93,0,0,0-6.37,2.09l-1.23-4.44a15.45,15.45,0,0,1,8.27-2.45c5.51,0,9,3.42,9,8.63v6.83c0,2.14.36,2.71,1.84,2.71Zm-7.65-1.13a15.65,15.65,0,0,1-.05-1.58v-2.5c-5.61.46-8.72,1-8.72,3.32,0,2,2.5,2.45,3.87,2.4A11.74,11.74,0,0,0,123.15,31.83Z" />
            <path fill-rule="evenodd" clip-rule="evenodd" d="M165.9,24.69V37.75h-5.3V24.69c0-3-1.18-4.79-3.58-4.79-2.6,0-4.18,1.83-4.18,4.79V37.75h-5.3V24.69c0-3-1.18-4.79-3.58-4.79-2.6,0-4.18,1.83-4.18,4.79V37.75h-5.3V15.3h4.59l.1,2.71a6.21,6.21,0,0,1,5.76-3.22,7,7,0,0,1,6.58,3.93A6.93,6.93,0,0,1,158,14.79C162.79,14.79,165.9,18.52,165.9,24.69Z" />
            <path fill-rule="evenodd" clip-rule="evenodd" d="M203.45,24.69V37.75h-5.31V24.69c0-3-1.17-4.79-3.57-4.79-2.6,0-4.18,1.83-4.18,4.79V37.75h-5.31V24.69c0-3-1.17-4.79-3.57-4.79-2.6,0-4.18,1.83-4.18,4.79V37.75H172V15.3h4.59l.11,2.71a6.21,6.21,0,0,1,5.76-3.22,7,7,0,0,1,6.58,3.93,6.93,6.93,0,0,1,6.48-3.93C200.34,14.79,203.45,18.52,203.45,24.69Z" />
            <path fill-rule="evenodd" clip-rule="evenodd" d="M229.52,28.93H213.75a6.41,6.41,0,0,0,6.43,4.23,15,15,0,0,0,6.89-2.09l1.22,4.44a12.8,12.8,0,0,1-8.11,2.75c-6.89,0-12.14-4.69-12.14-11.78a11.25,11.25,0,0,1,11.63-11.69c6.53,0,10.31,4.54,10.31,10.87A11.23,11.23,0,0,1,229.52,28.93ZM213.7,24.18H225a5,5,0,0,0-5.31-4.28A6.17,6.17,0,0,0,213.7,24.18Z" />
            <path fill-rule="evenodd" clip-rule="evenodd" d="M248.19,15.25l-1.53,5.11a5.37,5.37,0,0,0-2.15-.46c-2.85,0-4.64,3.06-4.64,7.34V37.75h-5.3V15.3h4.59l.15,4c1.28-2.85,3.32-4.54,5.92-4.54A11.64,11.64,0,0,1,248.19,15.25Z" />
        </g>
    </g>
</svg>